HIERARCHY
ROOT Hips
{
  OFFSET -0.188 26.990 -247.290
  CHANNELS 6 Xposition Yposition Zposition Zrotation Xrotation Yrotation
  JOINT LeftUpLeg
  {
    OFFSET 6.223 -5.908 2.158
    CHANNELS 6 Xposition Yposition Zposition Zrotation Xrotation Yrotation
    JOINT LeftLeg
    {
      OFFSET 0.000 -50.769 0.000
      CHANNELS 6 Xposition Yposition Zposition Zrotation Xrotation Yrotation
      JOINT LeftFoot
      {
        OFFSET 0.000 -39.456 -0.000
        CHANNELS 6 Xposition Yposition Zposition Zrotation Xrotation Yrotation
        End Site
        {
          OFFSET 0.000 -7.822 4.516
        }
      }
    }
  }
  JOINT RightUpLeg
  {
    OFFSET -6.407 -6.242 2.084
    CHANNELS 6 Xposition Yposition Zposition Zrotation Xrotation Yrotation
    JOINT RightLeg
    {
      OFFSET 0.000 -49.503 0.000
      CHANNELS 6 Xposition Yposition Zposition Zrotation Xrotation Yrotation
      JOINT RightFoot
      {
        OFFSET 0.000 -41.172 -0.000
        CHANNELS 6 Xposition Yposition Zposition Zrotation Xrotation Yrotation
        End Site
        {
          OFFSET 0.000 -7.846 4.530
        }
      }
    }
  }
  JOINT Spine
  {
    OFFSET 0.000 5.766 -5.766
    CHANNELS 6 Xposition Yposition Zposition Zrotation Xrotation Yrotation
    JOINT LeftShoulder
    {
      OFFSET -0.000 43.748 0.000
      CHANNELS 6 Xposition Yposition Zposition Zrotation Xrotation Yrotation
      JOINT LeftArm
      {
        OFFSET 22.301 0.000 -0.000
        CHANNELS 6 Xposition Yposition Zposition Zrotation Xrotation Yrotation
        JOINT LeftForeArm
        {
          OFFSET 21.220 0.000 0.000
          CHANNELS 6 Xposition Yposition Zposition Zrotation Xrotation Yrotation
          JOINT LeftHand
          {
            OFFSET 23.152 0.000 -0.000
            CHANNELS 6 Xposition Yposition Zposition Zrotation Xrotation Yrotation
            JOINT LeftHandThumb1
            {
            OFFSET 4.970 -0.620 3.390
            CHANNELS 6 Xposition Yposition Zposition Zrotation Xrotation Yrotation
              JOINT LeftHandThumb2
              {
              OFFSET 2.150 -0.000 0.000
              CHANNELS 6 Xposition Yposition Zposition Zrotation Xrotation Yrotation
                JOINT LeftHandThumb3
                {
                OFFSET 2.200 -0.000 0.000
                CHANNELS 6 Xposition Yposition Zposition Zrotation Xrotation Yrotation
                  JOINT LeftHandThumb4
                  {
                  OFFSET 1.700 -0.000 0.000
                  CHANNELS 6 Xposition Yposition Zposition Zrotation Xrotation Yrotation
                  }
                }
              }
            }
            JOINT LeftHandIndex1
            {
            OFFSET 8.730 0.680 2.070
            CHANNELS 6 Xposition Yposition Zposition Zrotation Xrotation Yrotation
              JOINT LeftHandIndex2
              {
              OFFSET 2.670 -0.000 0.000
              CHANNELS 6 Xposition Yposition Zposition Zrotation Xrotation Yrotation
                JOINT LeftHandIndex3
                {
                OFFSET 2.130 -0.000 0.000
                CHANNELS 6 Xposition Yposition Zposition Zrotation Xrotation Yrotation
                  JOINT LeftHandIndex4
                  {
                  OFFSET 1.800 -0.000 0.000
                  CHANNELS 6 Xposition Yposition Zposition Zrotation Xrotation Yrotation
                  }
                }
              }
            }
            JOINT LeftHandMiddle1
            {
            OFFSET 9.220 0.670 0.550
            CHANNELS 6 Xposition Yposition Zposition Zrotation Xrotation Yrotation
              JOINT LeftHandMiddle2
              {
              OFFSET 2.660 -0.000 0.000
              CHANNELS 6 Xposition Yposition Zposition Zrotation Xrotation Yrotation
                JOINT LeftHandMiddle3
                {
                OFFSET 2.280 -0.000 0.000
                CHANNELS 6 Xposition Yposition Zposition Zrotation Xrotation Yrotation
                  JOINT LeftHandMiddle4
                  {
                  OFFSET 1.500 -0.000 0.000
                  CHANNELS 6 Xposition Yposition Zposition Zrotation Xrotation Yrotation
                  }
                }
              }
            }
            JOINT LeftHandRing1
            {
            OFFSET 9.250 0.670 -1.130
            CHANNELS 6 Xposition Yposition Zposition Zrotation Xrotation Yrotation
              JOINT LeftHandRing2
              {
              OFFSET 2.470 -0.000 0.000
              CHANNELS 6 Xposition Yposition Zposition Zrotation Xrotation Yrotation
                JOINT LeftHandRing3
                {
                OFFSET 2.210 -0.000 0.000
                CHANNELS 6 Xposition Yposition Zposition Zrotation Xrotation Yrotation
                  JOINT LeftHandRing4
                  {
                  OFFSET 1.800 -0.000 0.000
                  CHANNELS 6 Xposition Yposition Zposition Zrotation Xrotation Yrotation
                  }
                }
              }
            }
            JOINT LeftHandPinky1
            {
            OFFSET 9.350 0.660 -2.720
            CHANNELS 6 Xposition Yposition Zposition Zrotation Xrotation Yrotation
              JOINT LeftHandPinky2
              {
              OFFSET 1.630 -0.000 0.000
              CHANNELS 6 Xposition Yposition Zposition Zrotation Xrotation Yrotation
                JOINT LeftHandPinky3
                {
                OFFSET 1.710 -0.000 0.000
                CHANNELS 6 Xposition Yposition Zposition Zrotation Xrotation Yrotation
                  JOINT LeftHandPinky4
                  {
                  OFFSET 1.800 -0.000 0.000
                  CHANNELS 6 Xposition Yposition Zposition Zrotation Xrotation Yrotation
                  }
                }
              }
            }
          }
        }
      }
    }
    JOINT RightShoulder
    {
      OFFSET -0.000 43.748 0.000
      CHANNELS 6 Xposition Yposition Zposition Zrotation Xrotation Yrotation
      JOINT RightArm
      {
        OFFSET -23.838 0.000 -0.000
        CHANNELS 6 Xposition Yposition Zposition Zrotation Xrotation Yrotation
        JOINT RightForeArm
        {
          OFFSET -22.992 0.000 0.000
          CHANNELS 6 Xposition Yposition Zposition Zrotation Xrotation Yrotation
          JOINT RightHand
          {
            OFFSET -23.864 0.000 -0.000
            CHANNELS 6 Xposition Yposition Zposition Zrotation Xrotation Yrotation
            JOINT RightHandThumb1
            {
            OFFSET -4.970 -0.620 3.390
            CHANNELS 6 Xposition Yposition Zposition Zrotation Xrotation Yrotation
              JOINT RightHandThumb2
              {
              OFFSET -2.150 0.000 0.000
              CHANNELS 6 Xposition Yposition Zposition Zrotation Xrotation Yrotation
                JOINT RightHandThumb3
                {
                OFFSET -2.200 0.000 0.000
                CHANNELS 6 Xposition Yposition Zposition Zrotation Xrotation Yrotation
                  JOINT RightHandThumb4
                  {
                  OFFSET -1.700 0.000 0.000
                  CHANNELS 6 Xposition Yposition Zposition Zrotation Xrotation Yrotation
                  }
                }
              }
            }
            JOINT RightHandIndex1
            {
            OFFSET -8.730 0.680 2.070
            CHANNELS 6 Xposition Yposition Zposition Zrotation Xrotation Yrotation
              JOINT RightHandIndex2
              {
              OFFSET -2.670 0.000 0.000
              CHANNELS 6 Xposition Yposition Zposition Zrotation Xrotation Yrotation
                JOINT RightHandIndex3
                {
                OFFSET -2.130 0.000 0.000
                CHANNELS 6 Xposition Yposition Zposition Zrotation Xrotation Yrotation
                  JOINT RightHandIndex4
                  {
                  OFFSET -1.800 0.000 0.000
                  CHANNELS 6 Xposition Yposition Zposition Zrotation Xrotation Yrotation
                  }
                }
              }
            }
            JOINT RightHandMiddle1
            {
            OFFSET -9.220 0.670 0.550
            CHANNELS 6 Xposition Yposition Zposition Zrotation Xrotation Yrotation
              JOINT RightHandMiddle2
              {
              OFFSET -2.660 0.000 0.000
              CHANNELS 6 Xposition Yposition Zposition Zrotation Xrotation Yrotation
                JOINT RightHandMiddle3
                {
                OFFSET -2.280 0.000 0.000
                CHANNELS 6 Xposition Yposition Zposition Zrotation Xrotation Yrotation
                  JOINT RightHandMiddle4
                  {
                  OFFSET -1.500 0.000 0.000
                  CHANNELS 6 Xposition Yposition Zposition Zrotation Xrotation Yrotation
                  }
                }
              }
            }
            JOINT RightHandRing1
            {
            OFFSET -9.250 0.670 -1.130
            CHANNELS 6 Xposition Yposition Zposition Zrotation Xrotation Yrotation
              JOINT RightHandRing2
              {
              OFFSET -2.470 0.000 0.000
              CHANNELS 6 Xposition Yposition Zposition Zrotation Xrotation Yrotation
                JOINT RightHandRing3
                {
                OFFSET -2.210 0.000 0.000
                CHANNELS 6 Xposition Yposition Zposition Zrotation Xrotation Yrotation
                  JOINT RightHandRing4
                  {
                  OFFSET -1.800 0.000 0.000
                  CHANNELS 6 Xposition Yposition Zposition Zrotation Xrotation Yrotation
                  }
                }
              }
            }
            JOINT RightHandPinky1
            {
            OFFSET -9.350 0.660 -2.720
            CHANNELS 6 Xposition Yposition Zposition Zrotation Xrotation Yrotation
              JOINT RightHandPinky2
              {
              OFFSET -1.630 0.000 0.000
              CHANNELS 6 Xposition Yposition Zposition Zrotation Xrotation Yrotation
                JOINT RightHandPinky3
                {
                OFFSET -1.710 0.000 0.000
                CHANNELS 6 Xposition Yposition Zposition Zrotation Xrotation Yrotation
                  JOINT RightHandPinky4
                  {
                  OFFSET -1.800 0.000 0.000
                  CHANNELS 6 Xposition Yposition Zposition Zrotation Xrotation Yrotation
                  }
                }
              }
            }
          }
        }
      }
    }
    JOINT Neck
    {
      OFFSET -0.000 43.748 0.000
      CHANNELS 6 Xposition Yposition Zposition Zrotation Xrotation Yrotation
      JOINT Head
      {
        OFFSET -0.000 10.200 -0.000
        CHANNELS 6 Xposition Yposition Zposition Zrotation Xrotation Yrotation
        End Site
        {
          OFFSET -0.000 0.041 -0.000
        }
      }
    }
  }
}
MOTION
Frames:	4
Frame Time:	0.0333333
26.0418 31.6119 -259.546 -4.15135 6.43679 8.63729 6.01243 -6.25249 1.62773 5.74072 -7.63259 -0.368271 -1.19209e-05 -55.1834 4.76837e-05 -1.8651 6.48812 0.210823 1.78814e-05 -38.2173 2.38419e-05 1.56134 -8.05295 1.30214 -5.9692 -6.53433 1.42722 1.40145 -5.10418 -0.949939 -5.96046e-06 -54.4943 -7.15256e-05 4.31732 0.293303 -0.0221421 5.96046e-06 -38.5512 4.76837e-05 -4.94338 -1.07912 -2.59274 0 5.66805 -5.66807 0.260282 -4.41073 -1.91501 5.96046e-06 43.7479 -2.38419e-05 -53.6214 1.28066e-05 -4.99121 24.4771 -5.96046e-06 7.15256e-05 -12.5034 32.8265 -7.22445 21.8186 -1.19209e-05 0 7.07934e-05 -1.06268e-05 -102.363 23.1364 -5.96046e-06 3.57628e-05 -4.0688 -0.00474171 -11.1891 0.0062 0.0497 0.0339 -3.69634 0 0 0 0.0215 0 0 -3.69634 0 0 0.022 0 0 -3.69634 0 0 0.017 0 0 0 0 -0.0068 0.0873 0.0207 -3.69634 0 0 0 0.0267 0 -6.57128 0 0 0 0.0213 0 -7.39269 0 0 0 0.018 0 0 0 0 -0.0067 0.0922 0.0055 -3.69634 0 0 0 0.0266 0 -6.57128 0 0 0 0.0228 0 -7.39269 0 0 0 0.015 0 0 0 0 -0.0067 0.0925 -0.0113 -3.69634 0 0 0 0.0247 0 -6.57128 0 0 0 0.0221 0 -7.39269 0 0 0 0.018 0 0 0 0 -0.0066 0.0935 -0.0272 -3.69634 0 0 0 0.0163 0 -6.57128 0 0 0 0.0171 0 -7.39269 0 0 0 0.018 0 0 0 0 5.96046e-06 43.7479 -2.38419e-05 51.9057 -5.12264e-06 5.21455 -23.4314 1.15484e-05 -7.15256e-05 25.5802 -6.43577 -31.267 -27.192 1.49012e-06 4.76837e-05 1.18233e-06 2.13443e-06 36.1873 -27.8924 5.21541e-06 2.38419e-05 6.03328 0.0291402 1.97441 -0.0062 0.0497 0.0339 0 0 0 0 0.0215 0 0 0 0 0 0.022 0 0 0 0 0 0.017 0 0 0 0 0.0068 0.0873 0.0207 0 0 0 0 0.0267 0 0 0 0 0 0.0213 0 0 0 0 0 0.018 0 0 0 0 0.0067 0.0922 0.0055 0 0 0 0 0.0266 0 0 0 0 0 0.0228 0 0 0 0 0 0.015 0 0 0 0 0.0067 0.0925 -0.0113 0 0 0 0 0.0247 0 0 0 0 0 0.0221 0 0 0 0 0 0.018 0 0 0 0 0.0066 0.0935 -0.0272 0 0 0 0 0.0163 0 0 0 0 0 0.0171 0 0 0 0 0 0.018 0 0 0 0 5.96046e-06 43.7479 -2.38419e-05 19.8849 17.4049 -6.1749 2.98023e-06 8.45066 2.38419e-05 1.12658e-05 -1.19528e-05 9.33815e-07 
26.3347 31.3418 -260.703 -4.17178 6.47283 7.49603 5.96285 -6.16604 1.64537 5.80227 -6.61582 -0.960049 5.96046e-06 -55.3072 -2.38419e-05 -2.05649 4.4915 0.161114 -1.78814e-05 -37.7543 0 0.405385 -7.59326 0.48877 -5.96472 -6.54294 1.34814 1.72284 -6.01841 -1.42788 5.96046e-06 -54.6865 0 3.2874 0.676426 -0.0388516 -2.98023e-06 -38.0178 -2.38419e-05 -5.08467 -0.0708139 -2.69625 1.19209e-05 5.72124 -5.72121 -0.0681272 -4.37577 -1.38681 -1.19209e-05 43.7478 0 -53.6557 1.23797e-05 -5.67561 24.0391 5.96046e-06 -9.53674e-05 -10.7096 34.4726 -7.16416 21.7394 0 7.15256e-05 1.26888e-05 -8.30399e-06 -103.347 24.6876 -1.19209e-05 1.19209e-05 -3.03306 0.00956156 -12.6139 0.0062 0.0497 0.0339 0 0 0 0 0.0215 0 0 0 0 0 0.022 0 0 0 0 0 0.017 0 0 0 0 -0.0068 0.0873 0.0207 0 0 0 0 0.0267 0 0 0 0 0 0.0213 0 0 0 0 0 0.018 0 0 0 0 -0.0067 0.0922 0.0055 0 0 0 0 0.0266 0 0 0 0 0 0.0228 0 0 0 0 0 0.015 0 0 0 0 -0.0067 0.0925 -0.0113 0 0 0 0 0.0247 0 0 0 0 0 0.0221 0 0 0 0 0 0.018 0 0 0 0 -0.0066 0.0935 -0.0272 0 0 0 0 0.0163 0 0 0 0 0 0.0171 0 0 0 0 0 0.018 0 0 0 0 -1.19209e-05 43.7478 0 51.9866 -4.26887e-06 5.78222 -23.5973 -7.82311e-06 2.38419e-05 26.9118 -4.8007 -31.8145 -27.1811 7.45058e-06 0 5.47213e-06 4.26887e-07 37.7323 -28.1498 1.49012e-06 -4.76837e-05 -1.18045 -0.0492042 1.53835 -0.0062 0.0497 0.0339 0 0 0 0 0.0215 0 0 0 0 0 0.022 0 0 0 0 0 0.017 0 0 0 0 0.0068 0.0873 0.0207 0 0 0 0 0.0267 0 0 0 0 0 0.0213 0 0 0 0 0 0.018 0 0 0 0 0.0067 0.0922 0.0055 0 0 0 0 0.0266 0 0 0 0 0 0.0228 0 0 0 0 0 0.015 0 0 0 0 0.0067 0.0925 -0.0113 0 0 0 0 0.0247 0 0 0 0 0 0.0221 0 0 0 0 0 0.018 0 0 0 0 0.0066 0.0935 -0.0272 0 0 0 0 0.0163 0 0 0 0 0 0.0171 0 0 0 0 0 0.018 0 0 0 0 -1.19209e-05 43.7478 0 23.0941 17.6241 -7.35655 0 8.92074 -2.38419e-05 1.3607e-05 -1.19528e-05 -1.4941e-06 
26.3347 31.3418 -260.703 -4.17178 6.47283 7.49603 5.96285 -6.16604 1.64537 5.80227 -6.61582 -0.960049 5.96046e-06 -55.3072 -2.38419e-05 -2.05649 4.4915 0.161114 -1.78814e-05 -37.7543 0 0.405385 -7.59326 0.48877 -5.96472 -6.54294 1.34814 1.72284 -6.01841 -1.42788 5.96046e-06 -54.6865 0 3.2874 0.676426 -0.0388516 -2.98023e-06 -38.0178 -2.38419e-05 -5.08467 -0.0708139 -2.69625 1.19209e-05 5.72124 -5.72121 -0.0681272 -4.37577 -1.38681 -1.19209e-05 43.7478 0 -53.6557 1.23797e-05 -5.67561 24.0391 5.96046e-06 -9.53674e-05 -10.7096 34.4726 -7.16416 21.7394 0 7.15256e-05 1.26888e-05 -8.30399e-06 -103.347 24.6876 -1.19209e-05 1.19209e-05 -3.03306 0.00956156 -12.6139 0.0062 0.0497 0.0339 0 0 0 0 0.0215 0 0 0 0 0 0.022 0 0 0 0 0 0.017 0 0 0 0 -0.0068 0.0873 0.0207 0 0 0 0 0.0267 0 0 0 0 0 0.0213 0 0 0 0 0 0.018 0 0 0 0 -0.0067 0.0922 0.0055 0 0 0 0 0.0266 0 0 0 0 0 0.0228 0 0 0 0 0 0.015 0 0 0 0 -0.0067 0.0925 -0.0113 0 0 0 0 0.0247 0 0 0 0 0 0.0221 0 0 0 0 0 0.018 0 0 0 0 -0.0066 0.0935 -0.0272 0 0 0 0 0.0163 0 0 0 0 0 0.0171 0 0 0 0 0 0.018 0 0 0 0 -1.19209e-05 43.7478 0 51.9866 -4.26887e-06 5.78222 -23.5973 -7.82311e-06 2.38419e-05 26.9118 -4.8007 -31.8145 -27.1811 7.45058e-06 0 5.47213e-06 4.26887e-07 37.7323 -28.1498 1.49012e-06 -4.76837e-05 -1.18045 -0.0492042 1.53835 -0.0062 0.0497 0.0339 0 0 0 0 0.0215 0 0 0 0 0 0.022 0 0 0 0 0 0.017 0 0 0 0 0.0068 0.0873 0.0207 0 0 0 0 0.0267 0 0 0 0 0 0.0213 0 0 0 0 0 0.018 0 0 0 0 0.0067 0.0922 0.0055 0 0 0 0 0.0266 0 0 0 0 0 0.0228 0 0 0 0 0 0.015 0 0 0 0 0.0067 0.0925 -0.0113 0 0 0 0 0.0247 0 0 0 0 0 0.0221 0 0 0 0 0 0.018 0 0 0 0 0.0066 0.0935 -0.0272 0 0 0 0 0.0163 0 0 0 0 0 0.0171 0 0 0 0 0 0.018 0 0 0 0 -1.19209e-05 43.7478 0 23.0941 17.6241 -7.35655 0 8.92074 -2.38419e-05 1.3607e-05 -1.19528e-05 -1.4941e-06 
26.6638 31.3953 -261.532 -4.25064 6.62821 7.47149 5.94685 -6.10769 1.69313 5.62743 -6.51003 -1.70708 0 -55.4634 -4.76837e-05 -2.01089 3.58036 0.12563 -1.78814e-05 -37.5821 0 -0.30943 -7.02022 -0.0125807 -5.95629 -6.54225 1.2527 1.7594 -6.87643 -2.14219 2.98023e-06 -54.9894 0 2.75439 1.08236 -0.0520699 -2.98023e-06 -37.7504 -2.38419e-05 -4.97186 0.503251 -2.64781 0 5.71591 -5.71589 -0.0733195 -4.28709 -1.43201 -5.96046e-06 43.7479 -4.76837e-05 -53.522 1.10991e-05 -5.85163 24.0946 1.78814e-05 4.76837e-05 -9.79737 35.3247 -8.16187 21.6508 -2.98023e-05 -2.38419e-05 3.96946e-05 -1.12273e-05 -103.074 25.3916 -1.19209e-05 -1.19209e-05 -1.09971 -0.0289185 -13.7452 0.0062 0.0497 0.0339 0 0 0 0 0.0215 0 0 0 0 0 0.022 0 0 0 0 0 0.017 0 0 0 0 -0.0068 0.0873 0.0207 0 0 0 0 0.0267 0 0 0 0 0 0.0213 0 0 0 0 0 0.018 0 0 0 0 -0.0067 0.0922 0.0055 0 0 0 0 0.0266 0 0 0 0 0 0.0228 0 0 0 0 0 0.015 0 0 0 0 -0.0067 0.0925 -0.0113 0 0 0 0 0.0247 0 0 0 0 0 0.0221 0 0 0 0 0 0.018 0 0 0 0 -0.0066 0.0935 -0.0272 0 0 0 0 0.0163 0 0 0 0 0 0.0171 0 0 0 0 0 0.018 0 0 0 0 -5.96046e-06 43.7479 -4.76837e-05 52.2117 -4.69576e-06 5.99605 -23.5162 -8.19564e-06 -4.76837e-05 27.5908 -3.61404 -31.5108 -27.1746 -2.98023e-06 9.53674e-05 1.05988e-05 -4.26887e-07 38.7047 -28.268 -5.96046e-06 -2.38419e-05 -1.71092 -0.0508636 2.73337 -0.0062 0.0497 0.0339 0 0 0 0 0.0215 0 0 0 0 0 0.022 0 0 0 0 0 0.017 0 0 0 0 0.0068 0.0873 0.0207 0 0 0 0 0.0267 0 0 0 0 0 0.0213 0 0 0 0 0 0.018 0 0 0 0 0.0067 0.0922 0.0055 0 0 0 0 0.0266 0 0 0 0 0 0.0228 0 0 0 0 0 0.015 0 0 0 0 0.0067 0.0925 -0.0113 0 0 0 0 0.0247 0 0 0 0 0 0.0221 0 0 0 0 0 0.018 0 0 0 0 0.0066 0.0935 -0.0272 0 0 0 0 0.0163 0 0 0 0 0 0.0171 0 0 0 0 0 0.018 0 0 0 0 -5.96046e-06 43.7479 -4.76837e-05 22.9755 16.6937 -6.94371 1.19209e-05 8.91319 0 1.24864e-05 -1.02453e-05 -3.20165e-07 
